<?xml version="1.0" encoding="UTF-8" standalone="no"?><!DOCTYPE svg PUBLIC "-//W3C//DTD SVG 1.1//EN" "http://www.w3.org/Graphics/SVG/1.1/DTD/svg11.dtd"><svg width="100%" height="100%" viewBox="0 0 96 96" version="1.1" xmlns="http://www.w3.org/2000/svg" xmlns:xlink="http://www.w3.org/1999/xlink" xml:space="preserve" xmlns:serif="http://www.serif.com/" style="fill-rule:evenodd;clip-rule:evenodd;stroke-linejoin:round;stroke-miterlimit:2;"><g><path d="M27.2,6.2c-2.9,0.6 -5.6,2.2 -8.2,4.8c-5.6,5.6 -6.2,10.1 -5.8,39.8c0.3,24 0.4,24.8 2.8,29.7c1.8,3.7 3.7,5.7 7,7.5c4.4,2.4 5,2.5 25,2.5c20,0 20.6,-0.1 25,-2.5c3,-1.7 5.3,-4 7,-7c2.3,-4.3 2.5,-5.5 2.8,-23.3c0.2,-10.3 0.1,-19.9 -0.3,-21.4c-0.7,-3.1 -24.3,-27.6 -28.7,-29.9c-3.1,-1.6 -19.7,-1.8 -26.6,-0.2Zm42.9,31.6c-13.9,0.8 -20.1,-5.2 -20.1,-19.8l0,-5.5l25,25l-4.9,0.3Z" style="fill:#b3b3b3;fill-rule:nonzero;"/></g></svg>