<?xml version="1.0" encoding="UTF-8" standalone="no"?><!DOCTYPE svg PUBLIC "-//W3C//DTD SVG 1.1//EN" "http://www.w3.org/Graphics/SVG/1.1/DTD/svg11.dtd"><svg width="100%" height="100%" viewBox="0 0 32 32" version="1.1" xmlns="http://www.w3.org/2000/svg" xmlns:xlink="http://www.w3.org/1999/xlink" xml:space="preserve" xmlns:serif="http://www.serif.com/" style="fill-rule:evenodd;clip-rule:evenodd;stroke-linejoin:round;stroke-miterlimit:2;"><g><path d="M8.9,2.6c-5.1,0.9 -6.4,3.7 -6.4,13.5c0,7.9 0.2,9.1 2.3,11.1c2,2.1 3.2,2.3 11.2,2.3c8,0 9.2,-0.2 11.2,-2.3c2.1,-2 2.3,-3.2 2.3,-11.2c0,-11.6 -1.1,-12.9 -11.1,-13.5c-3.8,-0.2 -8.1,-0.1 -9.5,0.1Zm12.6,8.4c-0.5,0.8 -1.1,0.8 -1.7,0.2c-0.6,-0.6 -0.7,-1.6 -0.3,-2.2c0.5,-0.8 1.1,-0.8 1.7,-0.2c0.6,0.6 0.7,1.6 0.3,2.2Zm-5.3,6.7c2.7,2.6 2.8,2.6 4.8,0.8c1.9,-1.7 2.1,-1.7 4,0c2.4,2.2 2.6,4.8 0.4,6.9c-1.1,1.2 -3.6,1.6 -9.4,1.6c-11,0 -14,-3.3 -8.3,-9.2c3.3,-3.5 4.9,-3.5 8.5,-0.1Z" style="fill:#b2b2b2;fill-rule:nonzero;"/></g></svg>