<?xml version="1.0" encoding="UTF-8" standalone="no"?><!DOCTYPE svg PUBLIC "-//W3C//DTD SVG 1.1//EN" "http://www.w3.org/Graphics/SVG/1.1/DTD/svg11.dtd"><svg width="100%" height="100%" viewBox="0 0 24 24" version="1.1" xmlns="http://www.w3.org/2000/svg" xmlns:xlink="http://www.w3.org/1999/xlink" xml:space="preserve" xmlns:serif="http://www.serif.com/" style="fill-rule:evenodd;clip-rule:evenodd;stroke-linejoin:round;stroke-miterlimit:2;"><path d="M17.993,9.383c-0.011,-0.906 -0.042,-1.689 -0.131,-2.356c-0.005,-0.034 -0.009,-0.068 -0.014,-0.102c0.458,-0.36 0.873,-0.664 1.247,-0.89c0.7,-0.423 1.588,-0.777 2.498,-0.326c0.897,0.444 1.174,1.355 1.29,2.173c0.116,0.822 0.116,1.927 0.116,3.255l0,1.726c0,1.328 0,2.434 -0.116,3.255c-0.116,0.817 -0.393,1.728 -1.29,2.173c-0.911,0.451 -1.798,0.097 -2.498,-0.326c-0.374,-0.226 -0.788,-0.53 -1.247,-0.89c0.005,-0.034 0.01,-0.068 0.014,-0.102c0.09,-0.666 0.121,-1.45 0.131,-2.356c0.958,0.789 1.619,1.324 2.135,1.635c0.271,0.164 0.435,0.223 0.525,0.241c0.02,0.004 0.033,0.005 0.041,0.006c0.004,0 0.009,0 0.009,0l0.002,-0.001c0.004,-0.002 0.006,-0.004 0.006,-0.004c0.003,-0.003 0.018,-0.019 0.039,-0.061c0.048,-0.094 0.107,-0.272 0.153,-0.596c0.094,-0.664 0.096,-1.626 0.096,-3.056l0,-1.564c0,-1.43 -0.002,-2.392 -0.096,-3.056c-0.046,-0.324 -0.105,-0.503 -0.153,-0.596c-0.021,-0.042 -0.036,-0.057 -0.039,-0.06c0,0 -0.002,-0.002 -0.007,-0.004l-0.002,-0.001c0,0 -0.005,-0 -0.009,0c-0.008,0 -0.021,0.002 -0.041,0.006c-0.089,0.018 -0.253,0.077 -0.525,0.241c-0.516,0.312 -1.177,0.846 -2.135,1.635Z" style="fill:#b2b2b2;fill-rule:nonzero;"/><path d="M8.928,3l1.144,0c1.589,-0 2.882,-0 3.902,0.137c1.064,0.143 1.979,0.452 2.708,1.181c0.729,0.729 1.038,1.644 1.181,2.708c0.137,1.02 0.137,2.313 0.137,3.902l0,2.144c0,1.589 0,2.882 -0.137,3.902c-0.143,1.064 -0.452,1.979 -1.181,2.708c-0.729,0.729 -1.644,1.038 -2.708,1.181c-1.02,0.137 -2.313,0.137 -3.902,0.137l-1.144,0c-1.589,0 -2.882,0 -3.902,-0.137c-1.064,-0.143 -1.979,-0.452 -2.708,-1.181c-0.729,-0.729 -1.038,-1.644 -1.181,-2.708c-0.137,-1.02 -0.137,-2.313 -0.137,-3.902l0,-2.144c-0,-1.589 -0,-2.882 0.137,-3.902c0.143,-1.064 0.452,-1.979 1.181,-2.708c0.729,-0.729 1.644,-1.038 2.708,-1.181c1.02,-0.137 2.313,-0.137 3.902,-0.137Zm2.072,4c-0.552,0 -1,0.448 -1,1c0,0.552 0.448,1 1,1l2,0c0.552,0 1,-0.448 1,-1c0,-0.552 -0.448,-1 -1,-1l-2,0Z" style="fill:#b2b2b2;"/></svg>