<?xml version="1.0" encoding="UTF-8" standalone="no"?>
<!DOCTYPE svg PUBLIC "-//W3C//DTD SVG 1.1//EN" "http://www.w3.org/Graphics/SVG/1.1/DTD/svg11.dtd">
<svg viewBox="0 0 953 1000" version="1.1" xmlns="http://www.w3.org/2000/svg" xmlns:xlink="http://www.w3.org/1999/xlink" xml:space="preserve" xmlns:serif="http://www.serif.com/" style="fill-rule:evenodd;clip-rule:evenodd;stroke-linejoin:round;stroke-miterlimit:2;">
    <g transform="matrix(1,0,0,1,-23.682492,0)">
        <g transform="matrix(5.117657,0,0,5.117657,-119.377611,-206.974417)">
            <path d="M122.083,128.501C122.055,75.095 122.161,75.012 122.019,74.625C121.225,72.47 119.659,73.202 119.58,75.507C119.495,77.954 119.797,138.203 119.828,180.501C119.869,235.018 120.201,235.241 119.593,235.698C119.324,235.9 118.924,236.201 115.658,234.218C114.124,233.287 114.125,233.31 97.404,223.665C91.286,220.136 90.887,219.958 90.837,218.451C90.776,216.619 90.901,216.627 90.914,165.5C90.943,53.574 90.502,53.378 91.319,52.266C92.187,51.086 92.52,52.816 109.518,54.299C117.571,55.001 124.302,55.156 137.545,53.84C138.108,53.784 138.094,53.736 144.549,52.872C149.243,52.244 150.529,50.637 150.953,53.39C151.142,54.617 150.961,86.989 151.056,91.499C151.093,93.285 151.066,211.457 151.175,217.487C151.23,220.495 150.318,220.245 145.356,223.253C143.842,224.171 126.447,234.063 124.801,235C124.653,235.084 124.542,235.222 124.396,235.308C121.667,236.908 122.12,234.649 122.106,231.496C122.105,231.404 122.118,151.186 122.083,128.501ZM182.91,41.266C182.665,44.834 182.7,44.834 182.717,75.5C182.771,170.025 182.751,170.003 182.795,170.447C182.811,170.603 183.009,172.567 184.471,171.467C184.798,171.221 184.901,168.746 184.911,168.506L185.054,49.501C185.058,45.981 184.542,45.918 185.526,42.977C185.862,43.109 186.238,43.122 186.574,43.254C187.037,43.435 189.1,44.686 189.316,44.817C191.952,46.415 207.7,55.4 208.334,55.781C212.817,58.469 213.902,58.352 214.017,61.502C214.078,63.155 214.092,155.34 214.094,163.5C214.096,182.385 214.21,182.544 213.431,183.444C212.506,184.514 202.411,189.959 200.366,191.264C200.334,191.284 161.592,213.624 157.295,216.136C155.045,217.452 153.761,218.098 153.622,215.492C153.442,212.092 153.66,99.58 153.68,89.5C153.752,52.464 153.611,52.424 153.892,51.745C154.718,49.754 161.978,49.941 176.7,42.943C181.647,40.591 181.673,40.169 182.453,40.584C182.694,40.713 182.669,41.137 182.91,41.266ZM28.126,64.501C28.127,62.515 27.914,59.825 28.835,58.82C29.411,58.193 48.856,47.191 50.374,46.272C50.777,46.029 55.248,43.325 55.438,43.286C57.107,42.952 56.89,43.766 56.908,45.459C56.969,51.142 56.888,51.139 56.936,116.501C56.976,170.919 56.94,171.112 57.484,171.517C58.58,172.333 59.035,171.396 59.091,171.279C59.395,170.654 59.237,170.609 59.35,48.5C59.357,41.313 58.816,41.021 59.568,40.62C61.293,39.699 61.145,42.737 80.393,48.836C86.493,50.768 88.016,50.377 88.176,52.572C88.212,53.071 88.4,205.621 88.38,213.5C88.373,216.275 88.851,218.09 86.317,216.956C85.72,216.689 79.901,213.337 79.677,213.201C77.027,211.596 37.865,189.027 37.373,188.713C36.053,187.871 36.012,187.987 34.683,187.185C28.913,183.7 27.999,183.902 27.975,180.498C27.907,171.219 28.019,171.225 28.126,64.501Z" style="fill:url(#_Linear1);"/>
        </g>
    </g>
    <defs>
        <linearGradient id="_Linear1" x1="0" y1="0" x2="1" y2="0" gradientUnits="userSpaceOnUse" gradientTransform="matrix(145.893339,163.274923,-163.274923,145.893339,55.091325,55.828271)"><stop offset="0" style="stop-color:rgb(30,223,255);stop-opacity:1"/><stop offset="1" style="stop-color:rgb(44,9,255);stop-opacity:1"/></linearGradient>
    </defs>
</svg>
